<svg xmlns="http://www.w3.org/2000/svg" xmlns:xlink="http://www.w3.org/1999/xlink" width="4696.087" height="1478.281" viewBox="0 0 4696.087 1478.281">
  <defs>
    <linearGradient id="linear-gradient" x1="0.361" y1="0.9" x2="0.598" y2="0.121" gradientUnits="objectBoundingBox">
      <stop offset="0" stop-color="#66e6e2"/>
      <stop offset="1" stop-color="#49a2ef"/>
    </linearGradient>
  </defs>
  <path id="Path_662" data-name="Path 662" d="M4674.452,2113.423c369.99-28.864,395.147,247.423,880.3,280.184s453.454-777.268,895.376-732.464c674.222,104.873,1275.1-202.912,1190.121-357.771-57.729-105.2-1065.308-248.812-1153.013-262.161-216.554-32.959-2130.393-13.5-2245.5,44.818-23.306,11.807-554.807,100.763-929.427,287.3-156.767,78.059-286.233,173.586-338.393,287.816-92.775,203.177,127.909,498.646,358.67,712.152,85.3,78.924,421.644,270.915,813.213-45.38C4300.6,2226.422,4487.976,2127.97,4674.452,2113.423Z" transform="translate(-2952.211 -1025.219)" fill="url(#linear-gradient)"/>
</svg>
