<svg xmlns="http://www.w3.org/2000/svg" xmlns:xlink="http://www.w3.org/1999/xlink" width="53" height="53" viewBox="0 0 53 53"><defs><clipPath id="a"><rect width="53" height="53" rx="16" fill="#fff" stroke="#707070" stroke-width="1"/></clipPath><linearGradient id="b" x1="0.361" y1="0.9" x2="0.598" y2="0.121" gradientUnits="objectBoundingBox"><stop offset="0" stop-color="#66e6e2"/><stop offset="1" stop-color="#49a2ef"/></linearGradient></defs><g transform="translate(1152 433)"><g transform="translate(-1152 -433)" clip-path="url(#a)"><path d="M3827.628,1590.123c188.066-14.984,200.854,128.441,447.457,145.448s230.491-403.492,455.121-380.234c342.708,54.441,648.133-105.335,604.939-185.725-29.343-54.612-541.5-129.162-586.078-136.092-110.074-17.109-1082.88-7.007-1141.392,23.265-11.846,6.129-282.009,52.308-472.428,149.141-79.685,40.522-145.493,90.111-172.006,149.41-47.157,105.473,65.016,258.855,182.313,369.689,43.359,40.971,214.322,140.636,413.356-23.557C3637.6,1648.782,3732.842,1597.675,3827.628,1590.123Z" transform="translate(-3620.799 -1229.128)" fill="url(#b)"/></g><g transform="translate(-1143 -416)"><path d="M138.522,177.494l-.334.134a.66.66,0,0,1-.51-.181,2.139,2.139,0,0,1-.326-.783l-3.218-12.321h-6.292l-2.949,12.321a1.847,1.847,0,0,1-.353.848l-.475.2c-.405,0-.711-.349-.9-1.048l-4.083-12.321h-5.765l5.406,16.077a10.008,10.008,0,0,0,1.064,2.279,3.748,3.748,0,0,0,1.56,1.3,6.082,6.082,0,0,0,2.517.455q3.979,0,5.066-4.151l2.183-8.36,2.289,8.225a7.932,7.932,0,0,0,1.025,2.247,4.762,4.762,0,0,0,1.619,1.5,4.681,4.681,0,0,0,2.3.542,4.123,4.123,0,0,0,1.886-.512,6.055,6.055,0,0,0,1.838-1.509,7.109,7.109,0,0,0,1.3-2.322l5.495-15.792h-5.636l-4.383,12.53a1.947,1.947,0,0,1-.318.64" transform="translate(-113.311 -164.324)" fill="#fff"/></g></g></svg>