<svg xmlns="http://www.w3.org/2000/svg" width="150.901" height="37.377" viewBox="0 0 150.901 37.377">
  <g id="logo" transform="translate(-113.311 -164.324)">
    <g id="Group_2" data-name="Group 2" transform="translate(113.311 164.324)">
      <g id="Group_1" data-name="Group 1">
        <path id="Path_1" data-name="Path 1" d="M152.522,184.808l-.52.209a1.026,1.026,0,0,1-.793-.282,3.327,3.327,0,0,1-.507-1.217L145.7,164.354h-9.785l-4.587,19.163a2.873,2.873,0,0,1-.549,1.318l-.739.311c-.63,0-1.106-.542-1.407-1.63l-6.351-19.163h-8.967l8.408,25a15.563,15.563,0,0,0,1.655,3.544,5.83,5.83,0,0,0,2.426,2.029,9.459,9.459,0,0,0,3.915.707q6.188,0,7.879-6.456l3.4-13,3.561,12.793a12.335,12.335,0,0,0,1.595,3.494,7.407,7.407,0,0,0,2.518,2.327,7.282,7.282,0,0,0,3.57.843,6.412,6.412,0,0,0,2.933-.8,9.419,9.419,0,0,0,2.859-2.346,11.058,11.058,0,0,0,2.026-3.612l8.546-24.561h-8.766l-6.816,19.488a3.031,3.031,0,0,1-.495,1" transform="translate(-113.311 -164.324)" fill="#fff"/>
      </g>
    </g>
    <path id="Path_2" data-name="Path 2" d="M191.677,176.159a7.293,7.293,0,0,0-2.34-2.748,10.627,10.627,0,0,0-3.666-1.617,19.841,19.841,0,0,0-4.751-.53,28.643,28.643,0,0,0-3.594.24A41.872,41.872,0,0,0,171.6,172.8l1.281,5.9a26.223,26.223,0,0,1,3.309-.929,16.456,16.456,0,0,1,3.57-.385,8.29,8.29,0,0,1,3.545.6,2.068,2.068,0,0,1,1.229,2v.337l-6.318.676q-4.15.434-6.126,2.219a6.531,6.531,0,0,0-1.977,5.113,7.276,7.276,0,0,0,.8,3.472,6.621,6.621,0,0,0,2.267,2.46,10.884,10.884,0,0,0,3.522,1.447,20.19,20.19,0,0,0,4.606.483q5.69,0,8.826-1.881a6.982,6.982,0,0,0,1.664-1.375,2.994,2.994,0,0,0,.7-2.05v-10.8A8.813,8.813,0,0,0,191.677,176.159Zm-7.091,13.434a4.41,4.41,0,0,1-1.471.458,10.717,10.717,0,0,1-1.809.168,4.09,4.09,0,0,1-2.533-.6,1.917,1.917,0,0,1-.748-1.567,1.559,1.559,0,0,1,.869-1.447,5.357,5.357,0,0,1,2.218-.579l3.472-.289Z" transform="translate(-3.043 -0.372)" fill="#fff"/>
    <path id="Path_3" data-name="Path 3" d="M220.972,178.184a10.631,10.631,0,0,0-2.8-3.882,11.505,11.505,0,0,0-4.268-2.291,18.61,18.61,0,0,0-5.379-.747,19.683,19.683,0,0,0-4.968.578,12.775,12.775,0,0,0-3.714,1.544,5.832,5.832,0,0,0-1.519,1.5,3.714,3.714,0,0,0-.556,2.122v25.07h8.2v-6.548a11.579,11.579,0,0,0,3.86.628,15.285,15.285,0,0,0,4.991-.772,10.011,10.011,0,0,0,3.835-2.339,10.559,10.559,0,0,0,2.46-3.883,15.343,15.343,0,0,0,.868-5.4A13.959,13.959,0,0,0,220.972,178.184Zm-12.348,11.5a5.243,5.243,0,0,1-1.447-.192,7.173,7.173,0,0,1-1.254-.483V178.4a6.583,6.583,0,0,1,1.254-.506,5.7,5.7,0,0,1,1.64-.217,4.33,4.33,0,0,1,3.545,1.494,7.128,7.128,0,0,1,1.23,4.583Q213.593,189.689,208.624,189.688Z" transform="translate(-4.524 -0.372)" fill="#fff"/>
    <path id="Path_4" data-name="Path 4" d="M250.342,178.184a10.64,10.64,0,0,0-2.8-3.882,11.51,11.51,0,0,0-4.269-2.291,18.6,18.6,0,0,0-5.378-.747,19.69,19.69,0,0,0-4.969.578,12.775,12.775,0,0,0-3.714,1.544,5.833,5.833,0,0,0-1.519,1.5,3.714,3.714,0,0,0-.555,2.122v25.07h8.2v-6.548a11.573,11.573,0,0,0,3.859.628,15.282,15.282,0,0,0,4.992-.772,10.011,10.011,0,0,0,3.835-2.339,10.559,10.559,0,0,0,2.46-3.883,15.342,15.342,0,0,0,.869-5.4A13.958,13.958,0,0,0,250.342,178.184Zm-12.347,11.5a5.238,5.238,0,0,1-1.447-.192,7.113,7.113,0,0,1-1.254-.483V178.4a6.531,6.531,0,0,1,1.254-.506,5.7,5.7,0,0,1,1.639-.217,4.33,4.33,0,0,1,3.545,1.494,7.122,7.122,0,0,1,1.23,4.583Q242.963,189.689,237.995,189.688Z" transform="translate(-6.098 -0.372)" fill="#fff"/>
    <path id="Path_5" data-name="Path 5" d="M268.127,189.4a3.472,3.472,0,0,1-1.629-.5,1.984,1.984,0,0,1-.8-1.785v-7.283h5.932v-6.27H265.7v-3.087q0-2.412-1.182-3.16a6.177,6.177,0,0,0-3.3-.747,12.547,12.547,0,0,0-2.1.168c-.66.114-1.166.217-1.519.313V187.7q0,4.341,2.291,6.27a9.872,9.872,0,0,0,6.535,1.93,42.664,42.664,0,0,0,5.516-.4l-.658-6.407A9.486,9.486,0,0,1,268.127,189.4Z" transform="translate(-7.729 -0.121)" fill="#fff"/>
  </g>
</svg>
